<?xml version="1.0" encoding="UTF-8" standalone="no"?><!DOCTYPE svg PUBLIC "-//W3C//DTD SVG 1.1//EN" "http://www.w3.org/Graphics/SVG/1.1/DTD/svg11.dtd"><svg width="100%" height="100%" viewBox="0 0 48 48" version="1.1" xmlns="http://www.w3.org/2000/svg" xmlns:xlink="http://www.w3.org/1999/xlink" xml:space="preserve" xmlns:serif="http://www.serif.com/" style="fill-rule:evenodd;clip-rule:evenodd;stroke-linejoin:round;stroke-miterlimit:1.41421;"><path d="M48,0l0,48l-48,0l0,-48l48,0Zm-5.538,5.538l-36.924,0l0,36.924l36.924,0l0,-36.924Z" style="fill:#fff;"/><rect x="9.231" y="9.231" width="29.538" height="5.538" style="fill:#fff;"/><path d="M25.846,18.462l0,20.307l12.923,0l0,-5.538l-7.384,0l0,-9.231l7.384,0l0,-5.538l-12.923,0" style="fill:#fff;"/><path d="M22.154,18.462l0,20.307l-12.923,0l0,-5.538l7.384,0l0,-9.231l-7.384,0l0,-5.538l12.923,0" style="fill:#fff;"/></svg>