<?xml version="1.0" encoding="UTF-8" standalone="no"?><!DOCTYPE svg PUBLIC "-//W3C//DTD SVG 1.1//EN" "http://www.w3.org/Graphics/SVG/1.1/DTD/svg11.dtd"><svg width="100%" height="100%" viewBox="0 0 48 48" version="1.1" xmlns="http://www.w3.org/2000/svg" xmlns:xlink="http://www.w3.org/1999/xlink" xml:space="preserve" xmlns:serif="http://www.serif.com/" style="fill-rule:evenodd;clip-rule:evenodd;stroke-linejoin:round;stroke-miterlimit:1.41421;"><path d="M43.525,6.437l-39.029,0" style="fill:#fff;"/><rect x="0.021" y="1.962" width="47.979" height="8.95" style="fill:#fff;fill-rule:nonzero;"/><path d="M47.915,24.572l-12.295,0l0,12.516l12.295,0l0,8.95l-16.965,-0.004c-0.797,-0.053 -1.056,-0.146 -1.517,-0.337c-1.638,-0.678 -2.717,-2.069 -2.762,-4.134l0,-21.466c0.017,-0.799 0.099,-1.062 0.27,-1.53c0.63,-1.731 2.089,-2.899 4.205,-2.945l16.769,0c0,2.983 0,5.967 0,8.95Z" style="fill:#fff;fill-rule:nonzero;"/><path d="M0,24.572l12.294,0l0,12.516l-12.294,0l0,8.95l16.964,-0.004c0.798,-0.053 1.057,-0.146 1.517,-0.337c1.639,-0.678 2.718,-2.069 2.763,-4.134l0,-21.466c-0.018,-0.799 -0.099,-1.062 -0.27,-1.53c-0.63,-1.731 -2.09,-2.899 -4.205,-2.945l-16.769,0c0,2.983 0,5.967 0,8.95Z" style="fill:#fff;fill-rule:nonzero;"/></svg>