<?xml version="1.0" encoding="UTF-8" standalone="no"?><!DOCTYPE svg PUBLIC "-//W3C//DTD SVG 1.1//EN" "http://www.w3.org/Graphics/SVG/1.1/DTD/svg11.dtd"><svg width="100%" height="100%" viewBox="0 0 178 170" version="1.1" xmlns="http://www.w3.org/2000/svg" xmlns:xlink="http://www.w3.org/1999/xlink" xml:space="preserve" style="fill-rule:evenodd;clip-rule:evenodd;stroke-linejoin:round;stroke-miterlimit:1.41421;"><rect id="Artboard1" x="0" y="0" width="177.003" height="169.88" style="fill:none;"/><g><g><path d="M79.863,141.537l-23.609,0c-1.435,-4.709 -3.152,-9.634 -5.14,-14.667l28.749,14.667Z" style="fill:#fff;"/><path d="M97.139,141.537l28.75,-14.667c-1.992,5.033 -3.709,9.958 -5.145,14.667l-23.605,0Z" style="fill:#fff;"/><path d="M78.601,151.605c7.126,-3.94 12.67,-3.94 19.801,0c-3.304,5.974 -6.602,11.948 -9.9,17.917c-3.304,-5.969 -6.602,-11.943 -9.901,-17.917Z" style="fill:#fff;"/></g><path id="path3367" d="M88.502,0l30.073,73.231l-30.073,59.401l-30.078,-59.401l30.078,-73.231Z" style="fill:#fff;"/><path id="path3369" d="M91.588,139.507l66.611,-33.98l18.804,-51.015l-47.25,20.692l-38.165,64.303l0,0Z" style="fill:#fff;"/><path id="path3371" d="M85.411,139.507l-66.611,-33.98l-18.8,-51.015l47.25,20.692l38.161,64.303Z" style="fill:#fff;"/></g></svg>